<svg width="480" height="480" viewBox="0 0 480 480" fill="none" xmlns="http://www.w3.org/2000/svg">
<g clip-path="url(#clip0_146_650)">
<path d="M104 0.000207168H376C389.665 -0.0270944 403.201 2.64431 415.832 7.86113C428.462 13.0779 439.937 20.7375 449.6 30.4002C459.263 40.063 466.922 51.5387 472.139 64.1688C477.356 76.799 480.028 90.3351 480 104V376C480.028 389.665 477.356 403.201 472.139 415.832C466.922 428.462 459.263 439.937 449.6 449.6C439.937 459.263 428.462 466.922 415.832 472.139C403.201 477.356 389.665 480.028 376 480H104C90.3351 480.028 76.799 477.356 64.1689 472.139C51.5387 466.922 40.063 459.263 30.4002 449.6C20.7375 439.937 13.078 428.462 7.86114 415.832C2.64432 403.201 -0.0270892 389.665 0.000207088 376V104C0.0129269 76.4216 10.9741 49.9762 30.4752 30.4752C49.9762 10.9741 76.4216 0.012927 104 0.000207168Z" fill="url(#paint0_linear_146_650)"/>
<path fill-rule="evenodd" clip-rule="evenodd" d="M327.599 108C366.799 108 387.199 122.8 399.599 132.8C402.363 135 404.592 137.8 406.116 140.987C407.641 144.175 408.421 147.667 408.398 151.2V346C408.292 347.467 407.733 348.864 406.798 350C406.287 350.54 405.665 350.963 404.974 351.24C404.284 351.516 403.541 351.639 402.798 351.6C402.115 351.636 401.432 351.51 400.807 351.232C400.181 350.954 399.63 350.532 399.199 350C386.799 339.6 362.398 326 326.398 326C266.398 326 248.799 382 248.799 382V170C248.823 159.12 252.484 148.561 259.199 140C270.399 125.2 290.799 108 327.599 108ZM157.198 108C193.998 108 214.399 125.2 225.999 140C232.713 148.561 236.374 159.12 236.398 170V382C236.398 382 218.799 326 158.799 326C122.799 326 98.3985 339.6 85.9985 350C84.8786 350.698 83.667 351.236 82.3985 351.6C81.6582 351.618 80.9219 351.486 80.2343 351.211C79.5467 350.936 78.9221 350.524 78.3985 350C77.8748 349.476 77.463 348.852 77.188 348.164C76.9129 347.477 76.7804 346.74 76.7985 346V151.2C76.8184 147.674 77.6176 144.196 79.139 141.015C80.6603 137.834 82.8661 135.029 85.5985 132.8C97.5985 122.8 117.998 108 157.198 108Z" fill="white"/>
</g>
<defs>
<linearGradient id="paint0_linear_146_650" x1="240" y1="0.000207168" x2="240" y2="480" gradientUnits="userSpaceOnUse">
<stop stop-color="#FE9D02"/>
<stop offset="1" stop-color="#F7701D"/>
</linearGradient>
<clipPath id="clip0_146_650">
<rect width="480" height="480" fill="white"/>
</clipPath>
</defs>
</svg>
