<svg width="300" height="300" viewBox="0 0 300 300" fill="none" xmlns="http://www.w3.org/2000/svg">
<g clip-path="url(#clip0_144_637)">
<path d="M150 300C232.843 300 300 232.843 300 150C300 67.1573 232.843 0 150 0C67.1573 0 0 67.1573 0 150C0 232.843 67.1573 300 150 300Z" fill="#50B748"/>
<path d="M183.381 296.101C187.065 295.308 190.718 294.376 194.331 293.308C199.106 291.832 203.805 290.119 208.408 288.174C213.015 286.22 217.52 284.036 221.908 281.631C226.298 279.231 230.565 276.612 234.693 273.785C238.822 270.967 242.808 267.944 246.635 264.728C250.461 261.505 254.123 258.093 257.608 254.505C261.094 250.914 264.398 247.152 267.508 243.231C270.614 239.314 273.521 235.243 276.22 231.035C278.924 226.828 281.415 222.488 283.685 218.031C285.954 213.579 287.999 209.015 289.812 204.358C291.618 199.694 293.189 194.942 294.52 190.12C295.863 185.301 296.965 180.418 297.82 175.489C297.84 175.297 297.859 175.105 297.878 174.912L230.77 107.781L226.281 106.72C219.4 105.165 212.563 103.422 205.778 101.493C199.622 99.724 193.561 97.6444 187.616 95.2622C187.351 95.1699 187.085 95.0891 186.82 94.9738C185.378 94.3968 184.016 93.7161 182.608 93.0815C180.935 92.3315 179.228 91.5814 177.612 90.7738C176.539 90.2199 175.535 89.5968 174.497 89.0314C172.812 88.1084 171.116 87.1968 169.512 86.193C168.324 85.443 167.216 84.6007 166.074 83.8045C164.597 82.7661 163.12 81.7622 161.724 80.643C160.789 79.9045 159.935 79.0622 159.035 78.2776C158.516 77.8161 158.02 77.3314 157.501 76.8584L149.862 69.2314L145.697 73.9161C128.043 93.7391 103.535 103.097 74.2968 106.662L69.2314 107.274V112.385C69.2314 142.155 75.5314 171.035 88.5699 194.712C90.9122 198.97 93.5545 202.997 96.3468 206.885C97.1545 208.005 97.9507 209.147 98.8045 210.231C100.715 212.692 102.729 215.071 104.839 217.362C105.52 218.101 106.189 218.862 106.893 219.566C107.17 219.855 107.435 220.166 107.724 220.443L183.381 296.101Z" fill="#10A711"/>
<path d="M149.862 69.243L145.697 73.9161C128.043 93.7391 103.535 103.097 74.2968 106.662L69.2314 107.274V112.385C69.2314 142.155 75.5314 171.035 88.5699 194.712C101.608 218.389 121.616 236.862 148.351 244.835L150.07 245.355L151.778 244.766C203.447 228.07 230.77 173.678 230.77 112.385V107.793L226.281 106.731C197.839 100.178 171.612 92.2161 154.189 73.8122L149.862 69.2314V69.243ZM150.139 84.5891C168.82 102.035 193.351 110.435 218.758 116.505C217.547 171.67 193.408 217.685 149.955 232.835C127.328 225.508 110.239 210.105 98.6891 189.139C87.4276 168.716 81.843 143.193 81.243 116.655C107.955 112.605 131.805 103.039 150.128 84.5891H150.139ZM180.808 133.985L138.728 170.828L119.458 151.581L111.301 159.739L138.185 186.624L188.424 142.674L180.808 133.985Z" fill="white"/>
</g>
<defs>
<clipPath id="clip0_144_637">
<rect width="300" height="300" fill="white"/>
</clipPath>
</defs>
</svg>
